<svg width="36" height="35" viewBox="0 0 36 35" fill="none" xmlns="http://www.w3.org/2000/svg">
<g clip-path="url(#clip0_82_1461)">
<path d="M18.3018 8.88438C20.6256 8.88438 22.5087 7.0013 22.5087 4.67751C22.5087 2.35372 20.6256 0.470642 18.3018 0.470642C15.978 0.470642 14.095 2.35372 14.095 4.67751C14.095 7.0013 15.978 8.88438 18.3018 8.88438Z" stroke="#003A96" stroke-width="1.15" stroke-miterlimit="10"/>
<path d="M13.0132 28.8942L18.1873 27.5091L13.0132 26.124" stroke="#003A96" stroke-width="1.15" stroke-miterlimit="10"/>
<path d="M24.5806 33.9653C25.1988 34.1313 25.857 33.7078 26.0402 33.0267L26.5839 31.0806C26.6297 30.9032 26.6411 30.7315 26.624 30.5655L18.1931 32.5001L24.5806 33.9653Z" stroke="#003A96" stroke-width="1.15" stroke-miterlimit="10"/>
<path d="M13.0132 26.124L8.86927 25.0136C8.80631 24.9964 8.73763 24.985 8.66894 24.9792C8.37704 24.8762 8.06796 24.819 7.74171 24.819C6.24785 24.819 5.04016 25.9923 5.04016 27.4347C5.04016 28.7912 6.11048 29.9073 7.47843 30.0389C7.48987 30.0389 7.50705 30.0504 7.51849 30.0504L9.75643 30.5655C9.81367 30.079 10.1285 29.6669 10.5864 29.541L13.0132 28.8885" stroke="#003A96" stroke-width="1.15" stroke-miterlimit="10"/>
<path d="M9.76216 30.5655C9.74499 30.7315 9.75643 30.9089 9.80222 31.0806L10.346 33.0267C10.5291 33.7078 11.1816 34.1313 11.8055 33.9653L18.1931 32.5001" stroke="#003A96" stroke-width="1.15" stroke-miterlimit="10"/>
<path d="M26.6185 30.5655L28.8564 30.0504C28.8564 30.0504 28.885 30.0389 28.8965 30.0389C30.2644 29.9073 31.3347 28.7912 31.3347 27.4347C31.3347 25.9866 30.1213 24.819 28.6332 24.819C28.3069 24.819 27.9979 24.8762 27.7059 24.9793C27.6373 24.9793 27.5743 24.9964 27.5056 25.0136L23.4705 26.0954" stroke="#003A96" stroke-width="1.15" stroke-miterlimit="10"/>
<path d="M18.1874 32.5058L26.6183 30.5655" stroke="#003A96" stroke-width="1.15" stroke-miterlimit="10"/>
<path d="M10.5921 29.5467C10.1342 29.6726 9.81938 30.0847 9.76215 30.5712" stroke="#003A96" stroke-width="1.15" stroke-miterlimit="10"/>
<path d="M34.8833 21.7684L28.4099 20.0341L23.5334 11.6089C23.4762 11.5116 23.4017 11.4372 23.3159 11.3742C23.1957 11.2311 23.0183 11.1453 22.8237 11.1453H13.6716C13.4884 11.1453 13.3224 11.2254 13.2022 11.3456C13.0935 11.4086 13.0019 11.5002 12.9389 11.6089L8.07959 20.0112L1.51458 21.7684C1.16544 21.8599 0.959391 22.2205 1.05097 22.5697L1.61761 24.6817C1.70919 25.0308 2.06977 25.2369 2.41892 25.1453L10.2202 23.0562C10.5007 22.9818 13.0191 18.4544 13.0191 18.4544V26.124L18.1932 27.5092L23.4762 26.0954V18.4944C23.4762 18.4944 25.8572 22.9703 26.1777 23.0562L33.979 25.1453C34.3282 25.2369 34.6887 25.0308 34.7803 24.6817L35.347 22.5697C35.4385 22.2205 35.2325 21.8599 34.8833 21.7684Z" stroke="#003A96" stroke-width="1.15" stroke-miterlimit="10"/>
</g>
<defs>
<clipPath id="clip0_82_1461">
<rect width="35" height="34.1872" fill="white" transform="translate(0.70166 0.144409)"/>
</clipPath>
</defs>
</svg>
