<svg width="29" height="36" viewBox="0 0 29 36" fill="none" xmlns="http://www.w3.org/2000/svg">
<rect width="27.4052" height="34" transform="translate(1 1)" fill="white"/>
<path d="M10.6157 18.6594L10.3339 20.8972C10.2494 21.5566 9.78152 22.1147 9.14459 22.3063C6.84485 23.0165 1.54081 24.9048 1.54081 27.1087L1.33789 32.7228C1.33789 32.7228 10.8356 34.797 15.4858 34.6617C22.075 34.4645 27.9878 32.7228 27.9878 32.7228L28.0892 27.1087C28.0892 24.8935 22.7908 23.0165 20.4854 22.3063C19.8485 22.1034 19.3807 21.5566 19.2961 20.8972L19.0199 18.6932" stroke="#003A96" stroke-width="1.5" stroke-miterlimit="10"/>
<path d="M9.00996 15.4466C9.16778 16.061 9.35379 16.6754 9.6018 17.2616C9.69199 17.4758 9.84981 17.7238 10.0753 17.9718C10.9884 18.992 12.8879 20.1475 14.7931 20.1475C17.1774 20.1475 19.573 18.372 20.0295 17.2616C20.2719 16.6697 20.4635 16.061 20.6214 15.4466M9.00996 15.4466L8.50267 11.0106M9.00996 15.4466C8.80141 14.6124 8.54776 11.5799 8.50267 11.0106M9.00996 15.4466L9.03251 15.6495C7.51062 14.9675 6.42276 13.4061 6.29875 11.7377C6.27057 11.3262 6.31003 10.8809 6.57495 10.5709C6.96951 10.12 7.97282 9.93398 8.33357 10.4976C8.41812 10.6329 8.46885 10.802 8.50267 11.0106M8.50267 11.0106L8.40684 10.1594V9.90579C8.40684 9.57323 9.3707 7.92735 9.38198 7.6117C10.56 7.6117 11.6592 7.23404 12.8203 6.9353C15.7852 8.50792 20.2268 7.6117 20.2268 7.6117C20.2381 7.89916 21.2301 9.60705 21.2301 9.90579V10.1594L21.1343 11.0106C21.1681 10.8133 21.2188 10.6329 21.3034 10.4976C21.6641 9.92834 22.6731 10.12 23.062 10.5709C23.3269 10.8809 23.3664 11.3262 23.3382 11.7377C23.2198 13.4061 22.1263 14.9675 20.6045 15.6495L20.627 15.4466M20.6157 15.4466C20.8186 14.6124 21.123 11.0106 21.123 11.0106C21.0667 12.0984 20.6157 15.4466 20.6157 15.4466Z" stroke="#003A96" stroke-width="1.5" stroke-miterlimit="10"/>
<path d="M8.29977 10.2891C8.11376 9.0998 7.85448 7.11572 7.99539 5.91512C8.13067 4.72016 8.61542 3.50829 9.58491 2.69662C10.0189 2.33024 11.8001 2.34715 11.8001 2.34715C11.8001 2.34715 12.8316 1.42275 13.7278 1.36075C14.0266 1.3382 14.5 1.32693 14.7931 1.32129C15.0919 1.32129 15.5597 1.3382 15.8585 1.36075C17.3465 1.4622 18.7275 1.93568 19.8266 2.85445C20.7961 3.67175 21.4556 4.71453 21.5965 5.90949C21.7318 7.10445 21.5007 9.05471 21.326 10.244" stroke="#003A96" stroke-width="1.5" stroke-miterlimit="10"/>
<path d="M7.94434 22.7065V25.2881" stroke="#003A96" stroke-width="1.5" stroke-miterlimit="10"/>
<path d="M10.819 30.609C10.9769 30.2765 11.1178 29.9326 11.1178 29.6114C11.1178 27.2214 9.77062 25.4177 7.95 25.4177C6.12937 25.4177 4.78223 27.2214 4.78223 29.6114C4.78223 29.9157 4.91751 30.2539 5.06406 30.5809" stroke="#003A96" stroke-width="1.5" stroke-miterlimit="10"/>
<path d="M5.57697 31.7347C5.99331 31.7347 6.33069 31.3974 6.33069 30.981C6.33069 30.5647 5.99331 30.2273 5.57697 30.2273C5.16062 30.2273 4.82324 30.5647 4.82324 30.981C4.82324 31.3974 5.16062 31.7347 5.57697 31.7347Z" stroke="#003A96" stroke-width="1.5" stroke-miterlimit="10"/>
<path d="M10.535 31.7347C10.9513 31.7347 11.2887 31.3974 11.2887 30.981C11.2887 30.5647 10.9513 30.2273 10.535 30.2273C10.1186 30.2273 9.78125 30.5647 9.78125 30.981C9.78125 31.3974 10.1186 31.7347 10.535 31.7347Z" stroke="#003A96" stroke-width="1.5" stroke-miterlimit="10"/>
<path d="M21.8945 23.1179V26.855" stroke="#003A96" stroke-width="1.5" stroke-miterlimit="10"/>
<path d="M23.5349 28.9462C23.7097 28.0443 23.1178 27.165 22.2103 26.9959C21.3085 26.8212 20.4292 27.413 20.2601 28.3205C20.0853 29.2224 20.6772 30.1017 21.5847 30.2708C22.4922 30.4399 23.3658 29.8537 23.5349 28.9462Z" stroke="#003A96" stroke-width="1.5" stroke-miterlimit="10"/>
<path d="M10.1758 21.5341L14.7696 26.4323L19.4536 21.4382" stroke="#003A96" stroke-width="1.5" stroke-miterlimit="10"/>
<path d="M20.6667 14.1107C20.6273 14.0938 16.738 12.6001 14.6919 12.6001C12.4429 12.6001 8.85804 14.0938 8.82422 14.1107" stroke="#003A96" stroke-width="1.15" stroke-miterlimit="10"/>
<path d="M17.741 16.2245C15.2496 15.2888 11.7887 16.2245 11.7549 16.2245" stroke="#003A96" stroke-miterlimit="10"/>
<path d="M15.6815 9.27547C13.7199 8.3398 10.9862 9.27547 10.958 9.27547" stroke="#003A96" stroke-miterlimit="10"/>
<path d="M18.0791 14.787C15.1932 13.6766 11.4674 14.787 11.4336 14.787" stroke="#003A96" stroke-miterlimit="10"/>
</svg>
