<svg width="29" height="36" viewBox="0 0 29 36" fill="none" xmlns="http://www.w3.org/2000/svg">
<path d="M10.6577 18.7998L10.3759 21.0375C10.2914 21.697 9.82352 22.255 9.18658 22.4467C6.88685 23.1569 1.5828 25.0452 1.5828 27.2491L1.37988 32.8631C1.37988 32.8631 10.8776 34.9374 15.5278 34.8021C22.117 34.6048 28.0298 32.8631 28.0298 32.8631L28.1312 27.2491C28.1312 25.0339 22.8328 23.1569 20.5274 22.4467C19.8905 22.2438 19.4227 21.697 19.3381 21.0375L19.0619 18.8336" stroke="#003A96" stroke-width="1.5" stroke-miterlimit="10"/>
<path d="M9.05195 15.587C9.20978 16.2013 9.39578 16.8157 9.6438 17.4019C9.73398 17.6161 9.89181 17.8641 10.1173 18.1122C11.0304 19.1324 12.9299 20.2879 14.8351 20.2879C17.2194 20.2879 19.6149 18.5124 20.0715 17.4019C20.3139 16.8101 20.5055 16.2013 20.6634 15.587M9.05195 15.587L8.54466 11.1509M9.05195 15.587C8.8434 14.7527 8.58975 11.7202 8.54466 11.1509M9.05195 15.587L9.0745 15.7899C7.55261 15.1078 6.46475 13.5465 6.34074 11.8781C6.31256 11.4666 6.35202 11.0213 6.61694 10.7113C7.0115 10.2604 8.01482 10.0744 8.37556 10.638C8.46011 10.7733 8.51084 10.9424 8.54466 11.1509M8.54466 11.1509L8.44884 10.2998V10.0462C8.44884 9.71361 9.41269 8.06773 9.42397 7.75208C10.602 7.75208 11.7012 7.37442 12.8623 7.07568C15.8272 8.6483 20.2688 7.75208 20.2688 7.75208C20.2801 8.03954 21.2721 9.74743 21.2721 10.0462V10.2998L21.1763 11.1509C21.2101 10.9537 21.2608 10.7733 21.3454 10.638C21.7061 10.0687 22.7151 10.2604 23.104 10.7113C23.3689 11.0213 23.4084 11.4666 23.3802 11.8781C23.2618 13.5465 22.1683 15.1078 20.6464 15.7899L20.669 15.587M20.6577 15.587C20.8606 14.7527 21.165 11.1509 21.165 11.1509C21.1087 12.2388 20.6577 15.587 20.6577 15.587Z" stroke="#003A96" stroke-width="1.5" stroke-miterlimit="10"/>
<path d="M8.34176 10.4295C8.15575 9.24018 7.89647 7.2561 8.03738 6.0555C8.17266 4.86054 8.65741 3.64867 9.62691 2.837C10.0609 2.47062 11.8421 2.48753 11.8421 2.48753C11.8421 2.48753 12.8736 1.56313 13.7698 1.50113C14.0686 1.47858 14.542 1.46731 14.8351 1.46167C15.1339 1.46167 15.6017 1.47858 15.9004 1.50113C17.3885 1.60259 18.7695 2.07606 19.8686 2.99483C20.8381 3.81213 21.4976 4.85491 21.6385 6.04987C21.7738 7.24483 21.5427 9.19509 21.368 10.3844" stroke="#003A96" stroke-width="1.5" stroke-miterlimit="10"/>
<path d="M7.98633 22.8469V25.4285" stroke="#003A96" stroke-width="1.5" stroke-miterlimit="10"/>
<path d="M10.861 30.7494C11.0188 30.4169 11.1598 30.073 11.1598 29.7517C11.1598 27.3618 9.81261 25.5581 7.99199 25.5581C6.17137 25.5581 4.82422 27.3618 4.82422 29.7517C4.82422 30.0561 4.9595 30.3943 5.10605 30.7212" stroke="#003A96" stroke-width="1.5" stroke-miterlimit="10"/>
<path d="M5.61896 31.8751C6.0353 31.8751 6.37269 31.5377 6.37269 31.1214C6.37269 30.7051 6.0353 30.3677 5.61896 30.3677C5.20262 30.3677 4.86523 30.7051 4.86523 31.1214C4.86523 31.5377 5.20262 31.8751 5.61896 31.8751Z" stroke="#003A96" stroke-width="1.5" stroke-miterlimit="10"/>
<path d="M10.577 31.8751C10.9933 31.8751 11.3307 31.5377 11.3307 31.1214C11.3307 30.7051 10.9933 30.3677 10.577 30.3677C10.1606 30.3677 9.82324 30.7051 9.82324 31.1214C9.82324 31.5377 10.1606 31.8751 10.577 31.8751Z" stroke="#003A96" stroke-width="1.5" stroke-miterlimit="10"/>
<path d="M21.9365 23.2583V26.9954" stroke="#003A96" stroke-width="1.5" stroke-miterlimit="10"/>
<path d="M23.5769 29.0866C23.7517 28.1847 23.1598 27.3054 22.2523 27.1363C21.3505 26.9616 20.4712 27.5534 20.3021 28.4609C20.1273 29.3627 20.7192 30.2421 21.6267 30.4112C22.5342 30.5803 23.4078 29.994 23.5769 29.0866Z" stroke="#003A96" stroke-width="1.5" stroke-miterlimit="10"/>
<path d="M10.2178 21.6744L14.8116 26.5726L19.4956 21.5786" stroke="#003A96" stroke-width="1.5" stroke-miterlimit="10"/>
<path d="M20.7087 14.2511C20.6693 14.2342 16.78 12.7405 14.7339 12.7405C12.4849 12.7405 8.90003 14.2342 8.86621 14.2511" stroke="#003A96" stroke-width="1.15" stroke-miterlimit="10"/>
<path d="M17.783 16.3648C15.2916 15.4292 11.8307 16.3648 11.7969 16.3648" stroke="#003A96" stroke-miterlimit="10"/>
<path d="M17.1571 17.8136C15.1955 16.8779 12.4618 17.8136 12.4336 17.8136" stroke="#003A96" stroke-miterlimit="10"/>
<path d="M18.1211 14.9274C15.2352 13.8169 11.5094 14.9274 11.4756 14.9274" stroke="#003A96" stroke-miterlimit="10"/>
</svg>
