<svg width="251" height="36" viewBox="0 0 251 36" fill="none" xmlns="http://www.w3.org/2000/svg">
<path fill-rule="evenodd" clip-rule="evenodd" d="M56.7995 27.6592C57.5804 27.6592 58.3613 27.2825 58.7258 26.5292C59.0902 25.7758 59.0902 24.9687 59.0902 24.4843V24.2153H58.4655C57.268 24.2153 55.1855 24.2153 55.1855 26.0449C55.2376 27.0135 55.7582 27.6592 56.7995 27.6592ZM53.5195 18.1346C53.5195 18.1346 54.9252 17.5965 57.1639 17.5965C58.882 17.5965 60.3918 17.9194 61.1727 19.0494C61.7975 19.9642 61.7975 21.1481 61.7975 22.2243V26.2601C61.7975 26.7444 61.7975 27.6054 62.7867 27.6054C63.099 27.6054 63.4114 27.4978 63.4114 27.4978V29.4888C63.4114 29.4888 62.7867 29.6502 61.9537 29.6502C60.4959 29.6502 59.6108 29.1121 59.4547 27.5516C59.0382 28.8969 57.7366 29.7041 56.1226 29.7041C53.8839 29.7041 52.4782 28.305 52.4782 26.1525C52.4782 23.6234 54.5087 22.3857 58.101 22.3857C58.7778 22.3857 59.1943 22.4395 59.1943 22.4395C59.1943 21.4709 59.1943 20.9866 58.882 20.4485C58.5696 19.9642 57.9969 19.6951 56.8515 19.6951C55.2376 19.6951 53.7798 20.2871 53.7798 20.2871H53.6236V18.1346H53.5195ZM72.158 20.3409H72.0018C72.0018 20.3409 70.544 19.749 69.2945 19.749C68.1491 19.749 67.5764 20.2333 67.5764 20.8252C67.5764 22.6548 72.7307 22.1167 72.7307 26.1525C72.7307 28.6278 70.8043 29.7579 68.0971 29.7579C66.1187 29.7579 64.8692 29.2197 64.8692 29.2197V26.9597H65.0254C65.0254 26.9597 66.7434 27.6592 68.2012 27.6592C69.4507 27.6592 69.9713 27.1211 69.9713 26.4754C69.9713 24.3767 64.8171 24.9687 64.8171 21.1481C64.8171 18.9956 66.4311 17.6503 69.2945 17.6503C70.9085 17.6503 72.1059 18.0808 72.1059 18.0808V20.3409H72.158ZM81.6855 20.3409H81.5293C81.5293 20.3409 80.0715 19.749 78.822 19.749C77.6766 19.749 77.1039 20.2333 77.1039 20.8252C77.1039 22.6548 82.2581 22.1167 82.2581 26.1525C82.2581 28.6278 80.3318 29.7579 77.6246 29.7579C75.6462 29.7579 74.3967 29.2197 74.3967 29.2197V26.9597H74.5529C74.5529 26.9597 76.2709 27.6592 77.7287 27.6592C78.9782 27.6592 79.4988 27.1211 79.4988 26.4754C79.4988 24.3767 74.3446 24.9687 74.3446 21.1481C74.3446 18.9956 75.9586 17.6503 78.822 17.6503C80.436 17.6503 81.6334 18.0808 81.6334 18.0808L81.6855 20.3409ZM101.053 21.0404V28.8969C101.053 28.8969 99.0224 29.7579 96.263 29.7579C91.4733 29.7579 88.1933 27.1749 88.1933 21.6324C88.1933 15.9284 91.6294 13.2916 96.5754 13.2916C98.8662 13.2916 100.532 13.8297 100.532 13.8297V16.0898H100.376C100.376 16.0898 98.7621 15.3902 96.6795 15.3902C93.2434 15.3902 91.1609 17.2736 91.1609 21.4171C91.1609 25.5606 93.2955 27.5516 96.3151 27.5516C97.4605 27.5516 98.3456 27.2287 98.3456 27.2287V23.1929H95.5862V21.0404H101.053ZM110.528 22.5471C110.528 20.5561 109.956 19.4799 108.394 19.4799C106.78 19.4799 106.155 20.6638 105.999 22.5471H110.528ZM112.611 29.2197C112.611 29.2197 111.049 29.7579 109.018 29.7579C106.832 29.7579 105.53 29.1659 104.697 28.305C103.656 27.2825 103.187 25.722 103.187 23.7848C103.187 19.9642 105.114 17.5427 108.498 17.5427C110.372 17.5427 111.778 18.2961 112.559 19.5875C113.34 20.9328 113.34 22.6548 113.34 24.4843H105.999C105.999 26.4754 107.092 27.713 109.279 27.713C110.841 27.713 112.507 27.0673 112.507 27.0673H112.663V29.2197H112.611ZM117.713 17.8118L118.234 19.8028C118.598 18.4575 119.639 17.5427 121.618 17.5427C123.388 17.5427 124.377 18.2422 124.898 19.1032C125.574 20.0718 125.574 21.2557 125.574 22.6548V29.5964H122.867V22.6548C122.867 21.9552 122.867 21.3095 122.503 20.7176C122.138 20.1794 121.618 19.8566 120.68 19.8566C118.65 19.8566 118.39 21.4709 118.39 22.4395V29.5964H115.682V17.8118H117.713ZM134.998 22.5471C134.998 20.5561 134.425 19.4799 132.863 19.4799C131.249 19.4799 130.624 20.6638 130.468 22.5471H134.998ZM137.08 29.2197C137.08 29.2197 135.518 29.7579 133.488 29.7579C131.301 29.7579 130 29.1659 129.167 28.305C128.125 27.2825 127.657 25.722 127.657 23.7848C127.657 19.9642 129.583 17.5427 132.967 17.5427C134.842 17.5427 136.247 18.2961 137.028 19.5875C137.809 20.9328 137.809 22.6548 137.809 24.4843H130.468C130.468 26.4754 131.562 27.713 133.748 27.713C135.31 27.713 136.976 27.0673 136.976 27.0673H137.132L137.08 29.2197ZM146.4 20.3409C146.4 20.3409 145.827 20.2333 145.202 20.2333C142.755 20.2333 142.755 22.1167 142.755 23.0314V29.5964H140.048V17.8118H142.13L142.651 20.1256C143.067 18.1346 144.473 17.7041 146.139 17.7041H146.452V20.3409H146.4ZM151.502 27.6592C152.335 27.6592 153.064 27.2825 153.428 26.5292C153.792 25.7758 153.792 24.9687 153.792 24.4843V24.2153H153.168C151.97 24.2153 149.888 24.2153 149.888 26.0449C149.888 27.0135 150.46 27.6592 151.502 27.6592ZM148.222 18.1346C148.222 18.1346 149.627 17.5965 151.866 17.5965C153.584 17.5965 155.094 17.9194 155.875 19.0494C156.5 19.9642 156.5 21.1481 156.5 22.2243V26.2601C156.5 26.7444 156.5 27.6054 157.489 27.6054C157.801 27.6054 158.114 27.4978 158.114 27.4978V29.4888C158.114 29.4888 157.489 29.6502 156.656 29.6502C155.198 29.6502 154.313 29.1121 154.157 27.5516C153.74 28.8969 152.439 29.7041 150.825 29.7041C148.586 29.7041 147.18 28.305 147.18 26.1525C147.18 23.6234 149.211 22.3857 152.803 22.3857C153.48 22.3857 153.897 22.4395 153.897 22.4395C153.897 21.4709 153.897 20.9866 153.584 20.4485C153.272 19.9642 152.699 19.6951 151.554 19.6951C149.94 19.6951 148.482 20.2871 148.482 20.2871H148.326V18.1346H148.222ZM162.435 12.9149V20.1256V29.5426H159.728V12.8611H162.435V12.9149ZM172.847 27.4978H175.086C175.815 27.4978 176.596 27.4978 177.429 27.0135C178.158 26.583 178.522 25.8835 178.522 24.861C178.522 23.8386 178.106 23.1391 177.429 22.7086C176.596 22.2243 175.815 22.2243 175.086 22.2243H172.847V27.4978ZM172.847 20.1256H174.774C175.398 20.1256 176.023 20.1256 176.648 19.8028C177.221 19.4799 177.637 18.888 177.637 17.8656C177.637 16.897 177.221 16.2512 176.648 15.8745C176.023 15.5517 175.398 15.5517 174.774 15.5517H172.847V20.1256ZM175.138 13.5068C176.336 13.5068 177.637 13.5068 178.783 14.2064C179.72 14.7983 180.501 15.7669 180.501 17.4889C180.501 20.7176 177.793 21.0404 177.793 21.0404C177.793 21.0404 181.438 21.2019 181.438 25.0225C181.438 26.852 180.605 28.0359 179.511 28.7354C178.158 29.6502 176.596 29.6502 175.294 29.6502H170.192V13.5068H175.138ZM189.82 20.3409C189.82 20.3409 189.247 20.2333 188.622 20.2333C186.175 20.2333 186.175 22.1167 186.175 23.0314V29.5964H183.468V17.8118H185.551L186.071 20.1256C186.488 18.1346 187.894 17.7041 189.56 17.7041H189.872V20.3409H189.82ZM194.141 17.8118V29.5426H191.434V17.8118H194.141ZM194.453 14.4755C194.453 15.3902 193.777 16.1436 192.839 16.1436C191.85 16.1436 191.226 15.3902 191.226 14.4755C191.226 13.5607 191.902 12.8073 192.839 12.8073C193.777 12.8073 194.453 13.5607 194.453 14.4755ZM203.304 21.3095C203.304 20.1256 202.575 19.4799 201.378 19.4799C200.18 19.4799 199.451 20.1256 199.451 21.3095C199.451 22.4933 200.18 23.1391 201.378 23.1391C202.575 23.1391 203.304 22.4933 203.304 21.3095ZM199.087 29.1121C199.087 29.1121 198.306 29.5426 198.306 30.5112C198.306 31.5336 199.191 32.0179 201.17 32.0179C203.356 32.0179 204.502 31.4798 204.502 30.3498C204.502 29.1659 203.096 29.1121 202.419 29.1121H199.087ZM201.378 25.1301C200.805 25.1301 200.284 25.0763 199.816 24.9687C199.556 25.1301 199.191 25.3991 199.191 25.9373C199.191 26.8521 200.128 26.8521 200.701 26.8521H202.627C204.033 26.8521 207.105 26.852 207.105 30.0269C207.105 32.6099 205.126 33.9551 200.961 33.9551C197.317 33.9551 195.703 32.9327 195.703 31.1031C195.703 29.0045 197.838 28.7354 197.942 28.7354C197.89 28.7354 196.484 28.1973 196.484 26.7444C196.484 25.2377 197.89 24.7534 198.618 24.592C197.369 23.9462 196.64 22.8162 196.64 21.3633C196.64 19.0494 198.462 17.5427 201.326 17.5427C202.731 17.5427 203.877 17.9194 204.71 18.5651C205.23 17.0584 206.428 17.0584 207.105 17.0584H207.365V19.3723C207.365 19.3723 206.949 19.2647 206.48 19.2647C205.959 19.2647 205.647 19.3723 205.543 19.4261C205.855 19.9642 206.063 20.6099 206.063 21.3095C206.063 23.6234 204.241 25.1301 201.378 25.1301ZM211.894 12.9149V19.6413C212.259 18.4037 213.196 17.5427 215.122 17.5427C216.893 17.5427 217.882 18.296 218.454 19.1032C219.131 20.0718 219.131 21.2557 219.131 22.6548V29.5964H216.424V22.6548C216.424 21.9552 216.424 21.3095 216.06 20.7176C215.695 20.1794 215.174 19.8566 214.237 19.8566C212.207 19.8566 211.947 21.4709 211.947 22.4395V29.5964H209.239V12.9149H211.894ZM225.379 27.6592C226.212 27.6592 226.941 27.2825 227.305 26.5292C227.669 25.7758 227.669 24.9687 227.669 24.4843V24.2153H227.045C225.847 24.2153 223.765 24.2153 223.765 26.0449C223.765 27.0135 224.337 27.6592 225.379 27.6592ZM222.099 18.1346C222.099 18.1346 223.504 17.5965 225.743 17.5965C227.461 17.5965 228.971 17.9194 229.752 19.0494C230.377 19.9642 230.377 21.1481 230.377 22.2243V26.2601C230.377 26.7444 230.377 27.6054 231.366 27.6054C231.678 27.6054 231.991 27.4978 231.991 27.4978V29.4888C231.991 29.4888 231.366 29.6502 230.533 29.6502C229.075 29.6502 228.19 29.1121 228.034 27.5516C227.617 28.8969 226.316 29.7041 224.702 29.7041C222.463 29.7041 221.058 28.305 221.058 26.1525C221.058 23.6234 223.088 22.3857 226.68 22.3857C227.357 22.3857 227.774 22.4395 227.774 22.4395C227.774 21.4709 227.774 20.9866 227.461 20.4485C227.149 19.9642 226.576 19.6951 225.431 19.6951C223.817 19.6951 222.359 20.2871 222.359 20.2871H222.203V18.1346H222.099ZM235.791 17.8118L236.312 19.8028C236.624 18.4575 237.613 17.5427 239.592 17.5427C241.57 17.5427 242.559 18.4575 243.028 19.9104C243.549 18.3499 244.59 17.5427 246.36 17.5427C248.13 17.5427 249.067 18.3499 249.536 19.1032C250.161 20.0718 250.161 21.2557 250.161 22.6548V29.5964H247.453V22.6548C247.453 21.9552 247.453 21.3095 247.141 20.7176C246.829 20.2333 246.36 19.8566 245.423 19.8566C243.549 19.8566 243.288 21.4709 243.288 22.4395V29.5964H240.581V22.6548C240.581 21.9552 240.581 21.3095 240.269 20.7176C239.956 20.2333 239.488 19.8566 238.551 19.8566C236.676 19.8566 236.416 21.4709 236.416 22.4395V29.5964H233.709V17.8118H235.791Z" fill="#003A96"/>
<path fill-rule="evenodd" clip-rule="evenodd" d="M37.1192 13.5069L42.0651 25.7759L46.907 13.5069H50.3952V29.5965H47.6879V17.0585L43.1064 28.7893H40.6594L36.0779 17.0585V29.5965H33.631V13.5069H37.1192Z" fill="#003A96"/>
<path fill-rule="evenodd" clip-rule="evenodd" d="M0 11.4615H12.1306H24.2613V8.3943H0L0 11.4615Z" fill="#213243"/>
<path fill-rule="evenodd" clip-rule="evenodd" d="M12.1306 0L0 4.19728L0 7.37216L12.1306 3.17487L24.2613 7.37216V4.19728L12.1306 0Z" fill="#213243"/>
<path fill-rule="evenodd" clip-rule="evenodd" d="M7.02824 13.5069V19.2109V24.3768H10.3082V13.5069H7.02824ZM14.0046 13.5069V19.2109V24.3768H17.2846V13.5069H14.0046Z" fill="#213243"/>
<path fill-rule="evenodd" clip-rule="evenodd" d="M24.2613 24.1611C24.2092 24.3226 23.0117 26.4212 15.2544 26.4212H9.00686C1.04125 26.475 0.156188 27.5512 0 27.6589L0 30.7799C0.156188 30.6723 1.04125 29.5961 9.00686 29.5423H15.3065C23.0638 29.5423 24.2092 27.4436 24.3133 27.2822V24.1611H24.2613Z" fill="#213243"/>
<path fill-rule="evenodd" clip-rule="evenodd" d="M24.2613 29.3808C24.2092 29.5423 23.0117 31.6409 15.2544 31.6409H9.00686C1.04125 31.6947 0.156188 32.7709 0 32.8786L0 35.9996C0.156188 35.892 1.04125 34.8158 9.00686 34.762H15.3065C23.0638 34.762 24.2092 32.6633 24.3133 32.5019V29.3808H24.2613Z" fill="#213243"/>
<path fill-rule="evenodd" clip-rule="evenodd" d="M3.27995 13.5069H0L0 19.2109L0 24.3768H3.27995V13.5069Z" fill="#213243"/>
<path fill-rule="evenodd" clip-rule="evenodd" d="M21.0335 13.5069V23.8387C23.6887 23.1929 24.2614 22.2243 24.3134 22.1167V13.5069H21.0335Z" fill="#213243"/>
<path fill-rule="evenodd" clip-rule="evenodd" d="M0 11.4618H12.1306H24.2613V8.39456H0L0 11.4618Z" fill="#009CA6"/>
<path fill-rule="evenodd" clip-rule="evenodd" d="M12.1306 0L0 4.19728L0 7.37216L12.1306 3.17487L24.2613 7.37216V4.19728L12.1306 0Z" fill="#009CA6"/>
<path fill-rule="evenodd" clip-rule="evenodd" d="M7.02824 13.5069V19.2109V24.3768H10.3082V13.5069H7.02824ZM14.0046 13.5069V19.2109V24.3768H17.2846V13.5069H14.0046Z" fill="#009CA6"/>
<path fill-rule="evenodd" clip-rule="evenodd" d="M24.2613 24.1609C24.2092 24.3223 23.0117 26.421 15.2544 26.421H9.00686C1.04125 26.4748 0.156188 27.551 0 27.6586L0 30.7797C0.156188 30.6721 1.04125 29.5958 9.00686 29.542H15.3065C23.0638 29.542 24.2092 27.4434 24.3133 27.2819V24.1609H24.2613Z" fill="#009CA6"/>
<path fill-rule="evenodd" clip-rule="evenodd" d="M24.2613 29.3812C24.2092 29.5426 23.0117 31.6413 15.2544 31.6413H9.00686C1.04125 31.6951 0.156188 32.7713 0 32.8789L0 36C0.156188 35.8924 1.04125 34.8162 9.00686 34.7623H15.3065C23.0638 34.7623 24.2092 32.6637 24.3133 32.5023V29.3812H24.2613Z" fill="#009CA6"/>
<path fill-rule="evenodd" clip-rule="evenodd" d="M3.27995 13.5069H0L0 19.2109L0 24.3768H3.27995V13.5069Z" fill="#009CA6"/>
<path fill-rule="evenodd" clip-rule="evenodd" d="M21.0335 13.5069V23.8387C23.6887 23.1929 24.2614 22.2243 24.3134 22.1167V13.5069H21.0335Z" fill="#009CA6"/>
</svg>
