<svg width="24" height="25" viewBox="0 0 24 25" fill="none" xmlns="http://www.w3.org/2000/svg">
<path d="M9.52562 16.3648C6.48014 13.3193 5.10016 9.05936 4.59517 6.16469C4.4001 5.04654 5.30322 4.10059 6.43826 4.10059H8.43376C9.35149 4.10059 10.1515 4.72518 10.374 5.61551L10.9003 7.72058C11.0533 8.33265 10.9081 8.98064 10.5117 9.47145C10.0234 10.076 9.52562 10.7001 9.52562 10.7285C9.98487 12.5237 12.9874 14.6773 14.4313 15.5297L15.9024 14.514C16.3618 14.1967 16.933 14.086 17.4778 14.2086L19.2372 14.6045C20.1498 14.8098 20.7982 15.6203 20.7982 16.5557V18.8976C20.7982 19.9422 19.9905 20.8112 18.9507 20.7103C16.3899 20.4618 12.5558 19.3949 9.52562 16.3648Z" stroke="#213243" stroke-width="1.5" stroke-linecap="round" stroke-linejoin="round"/>
</svg>
