<svg width="24" height="25" viewBox="0 0 24 25" fill="none" xmlns="http://www.w3.org/2000/svg">
<path d="M9.52562 16.5167C6.48014 13.4712 5.10016 9.21126 4.59517 6.31659C4.4001 5.19845 5.30322 4.25249 6.43826 4.25249H8.43376C9.35149 4.25249 10.1515 4.87708 10.374 5.76742L10.9003 7.87249C11.0533 8.48455 10.9081 9.13254 10.5117 9.62335C10.0234 10.2279 9.52562 10.852 9.52562 10.8804C9.98487 12.6756 12.9874 14.8292 14.4313 15.6817L15.9024 14.6659C16.3618 14.3486 16.933 14.2379 17.4778 14.3605L19.2372 14.7564C20.1498 14.9617 20.7982 15.7722 20.7982 16.7076V19.0495C20.7982 20.0941 19.9905 20.9631 18.9507 20.8622C16.3899 20.6137 12.5558 19.5468 9.52562 16.5167Z" stroke="#213243" stroke-width="1.5" stroke-linecap="round" stroke-linejoin="round"/>
</svg>
