<svg width="34" height="36" viewBox="0 0 34 36" fill="none" xmlns="http://www.w3.org/2000/svg">
<g clip-path="url(#clip0_82_1492)">
<path d="M24.3799 7.34448C24.3799 8.89011 25.6279 10.1438 27.1678 10.1438C28.7077 10.1438 29.9557 8.89011 29.9557 7.34448C29.9557 5.79885 28.7077 4.54517 27.1678 4.54517C25.6279 4.54517 24.3799 5.79885 24.3799 7.34448Z" stroke="#003A96" stroke-width="1.15" stroke-linejoin="round"/>
<path d="M21.0314 7.34442C21.0314 12.943 27.1624 18.5417 27.1624 18.5417C27.1624 18.5417 33.2934 12.943 33.2934 7.34442C33.2934 3.94403 30.5456 1.18478 27.1624 1.18478C23.7792 1.18478 21.0314 3.94403 21.0314 7.34442Z" stroke="#003A96" stroke-width="1.15" stroke-linejoin="round"/>
<path d="M21.0313 15.376V35.5207C21.0313 35.5207 21.0256 35.5322 21.0199 35.5264L11.0019 28.8173L1.02398 35.4978C1.02398 35.4978 0.966736 35.4978 0.966736 35.4692V15.376L10.9733 8.67251C10.9733 8.67251 11.0133 8.66106 11.0305 8.67251L21.0371 15.376H21.0313Z" stroke="#003A96" stroke-width="1.15" stroke-linejoin="round"/>
<path d="M11.0019 8.66107V28.8173" stroke="#003A96" stroke-width="1.15" stroke-linejoin="round"/>
<path d="M21.0314 35.5322L30.7231 28.8173V18.7363" stroke="#003A96" stroke-width="1.15" stroke-linejoin="round"/>
</g>
<defs>
<clipPath id="clip0_82_1492">
<rect width="32.985" height="35" fill="white" transform="translate(0.640442 0.852753)"/>
</clipPath>
</defs>
</svg>
