<svg width="29" height="44" viewBox="0 0 29 44" fill="none" xmlns="http://www.w3.org/2000/svg">
<path fill-rule="evenodd" clip-rule="evenodd" d="M0.5 13.797H14.5324H28.5648V10.1048H0.5V13.797Z" fill="white"/>
<path fill-rule="evenodd" clip-rule="evenodd" d="M14.5324 0L0.5 5.05244V8.87417L14.5324 3.82172L28.5648 8.87417V5.05244L14.5324 0Z" fill="white"/>
<path fill-rule="evenodd" clip-rule="evenodd" d="M8.63037 16.2598V23.1259V29.3443H12.4245V16.2598H8.63037ZM16.7005 16.2598V23.1259V29.3443H20.4947V16.2598H16.7005Z" fill="white"/>
<path fill-rule="evenodd" clip-rule="evenodd" d="M28.5648 29.0825C28.5046 29.2768 27.1194 31.803 18.1459 31.803H10.9189C1.70449 31.8678 0.680675 33.1633 0.5 33.2928V37.0498C0.680675 36.9202 1.70449 35.6247 10.9189 35.5599H18.2061C27.1796 35.5599 28.5046 33.0337 28.625 32.8394V29.0825H28.5648Z" fill="white"/>
<path fill-rule="evenodd" clip-rule="evenodd" d="M28.5648 35.3669C28.5046 35.5613 27.1194 38.0875 18.1459 38.0875H10.9189C1.70449 38.1523 0.680675 39.4478 0.5 39.5773V43.3342C0.680675 43.2047 1.70449 41.9092 10.9189 41.8444H18.2061C27.1796 41.8444 28.5046 39.3182 28.625 39.1239V35.3669H28.5648Z" fill="white"/>
<path fill-rule="evenodd" clip-rule="evenodd" d="M4.29416 16.2598H0.5V23.1259V29.3443H4.29416V16.2598Z" fill="white"/>
<path fill-rule="evenodd" clip-rule="evenodd" d="M24.8306 16.2598V28.6965C27.902 27.9192 28.5645 26.7533 28.6247 26.6237V16.2598H24.8306Z" fill="white"/>
<path fill-rule="evenodd" clip-rule="evenodd" d="M0.5 13.797H14.5324H28.5648V10.1048H0.5V13.797Z" fill="white"/>
<path fill-rule="evenodd" clip-rule="evenodd" d="M14.5324 0L0.5 5.05244V8.87417L14.5324 3.82172L28.5648 8.87417V5.05244L14.5324 0Z" fill="white"/>
<path fill-rule="evenodd" clip-rule="evenodd" d="M8.63037 16.2598V23.1259V29.3443H12.4245V16.2598H8.63037ZM16.7005 16.2598V23.1259V29.3443H20.4947V16.2598H16.7005Z" fill="white"/>
<path fill-rule="evenodd" clip-rule="evenodd" d="M28.5648 29.0825C28.5046 29.2768 27.1194 31.803 18.1459 31.803H10.9189C1.70449 31.8678 0.680675 33.1633 0.5 33.2928V37.0498C0.680675 36.9202 1.70449 35.6247 10.9189 35.5599H18.2061C27.1796 35.5599 28.5046 33.0337 28.625 32.8394V29.0825H28.5648Z" fill="white"/>
<path fill-rule="evenodd" clip-rule="evenodd" d="M28.5648 35.3669C28.5046 35.5613 27.1194 38.0875 18.1459 38.0875H10.9189C1.70449 38.1523 0.680675 39.4478 0.5 39.5773V43.3342C0.680675 43.2047 1.70449 41.9092 10.9189 41.8444H18.2061C27.1796 41.8444 28.5046 39.3182 28.625 39.1239V35.3669H28.5648Z" fill="white"/>
<path fill-rule="evenodd" clip-rule="evenodd" d="M4.29416 16.2598H0.5V23.1259V29.3443H4.29416V16.2598Z" fill="white"/>
<path fill-rule="evenodd" clip-rule="evenodd" d="M24.8306 16.2598V28.6965C27.902 27.9192 28.5645 26.7533 28.6247 26.6237V16.2598H24.8306Z" fill="white"/>
</svg>
